<mxfile host="app.diagrams.net" agent="Mozilla/5.0 (Windows NT 10.0; Win64; x64) AppleWebKit/537.36 (KHTML, like Gecko) Chrome/132.0.0.0 Safari/537.36 Edg/132.0.0.0" version="26.0.16">
  <diagram name="1 oldal" id="8UCw2fXijMpBnbHfLlZR">
    <mxGraphModel dx="2062" dy="662" grid="1" gridSize="10" guides="1" tooltips="1" connect="1" arrows="1" fold="1" page="1" pageScale="1" pageWidth="827" pageHeight="1169" math="0" shadow="0">
      <root>
        <mxCell id="0" />
        <mxCell id="1" parent="0" />
        <mxCell id="ayejM-d_Z_td1HJchVTd-1" value="Gyártó" style="rounded=0;whiteSpace=wrap;html=1;strokeWidth=2;" parent="1" vertex="1">
          <mxGeometry x="570" y="370" width="120" height="60" as="geometry" />
        </mxCell>
        <mxCell id="ayejM-d_Z_td1HJchVTd-2" value="Termék" style="rounded=0;whiteSpace=wrap;html=1;strokeWidth=2;" parent="1" vertex="1">
          <mxGeometry x="220" y="370" width="120" height="60" as="geometry" />
        </mxCell>
        <mxCell id="ayejM-d_Z_td1HJchVTd-3" value="T-GY" style="rhombus;whiteSpace=wrap;html=1;strokeWidth=2;" parent="1" vertex="1">
          <mxGeometry x="423.5" y="370" width="60" height="60" as="geometry" />
        </mxCell>
        <mxCell id="ayejM-d_Z_td1HJchVTd-4" value="Tkód" style="ellipse;whiteSpace=wrap;html=1;" parent="1" vertex="1">
          <mxGeometry x="150" y="480" width="80" height="30" as="geometry" />
        </mxCell>
        <mxCell id="ayejM-d_Z_td1HJchVTd-5" value="Név" style="ellipse;whiteSpace=wrap;html=1;" parent="1" vertex="1">
          <mxGeometry x="240" y="480" width="80" height="30" as="geometry" />
        </mxCell>
        <mxCell id="ayejM-d_Z_td1HJchVTd-6" value="Ear" style="ellipse;whiteSpace=wrap;html=1;" parent="1" vertex="1">
          <mxGeometry x="324" y="480" width="80" height="30" as="geometry" />
        </mxCell>
        <mxCell id="ayejM-d_Z_td1HJchVTd-7" value="Telephely" style="ellipse;whiteSpace=wrap;html=1;" parent="1" vertex="1">
          <mxGeometry x="730" y="385" width="80" height="30" as="geometry" />
        </mxCell>
        <mxCell id="ayejM-d_Z_td1HJchVTd-8" value="Házszám" style="ellipse;whiteSpace=wrap;html=1;" parent="1" vertex="1">
          <mxGeometry x="690" y="565" width="80" height="30" as="geometry" />
        </mxCell>
        <mxCell id="ayejM-d_Z_td1HJchVTd-9" value="Irszám" style="ellipse;whiteSpace=wrap;html=1;" parent="1" vertex="1">
          <mxGeometry x="500" y="565" width="80" height="30" as="geometry" />
        </mxCell>
        <mxCell id="ayejM-d_Z_td1HJchVTd-10" value="Város" style="ellipse;whiteSpace=wrap;html=1;" parent="1" vertex="1">
          <mxGeometry x="600" y="570" width="60" height="20" as="geometry" />
        </mxCell>
        <mxCell id="ayejM-d_Z_td1HJchVTd-11" value="Postaicím" style="ellipse;whiteSpace=wrap;html=1;" parent="1" vertex="1">
          <mxGeometry x="590" y="480" width="80" height="30" as="geometry" />
        </mxCell>
        <mxCell id="ayejM-d_Z_td1HJchVTd-12" value="Adószám" style="ellipse;whiteSpace=wrap;html=1;" parent="1" vertex="1">
          <mxGeometry x="490" y="480" width="80" height="30" as="geometry" />
        </mxCell>
        <mxCell id="ayejM-d_Z_td1HJchVTd-13" value="Név" style="ellipse;whiteSpace=wrap;html=1;" parent="1" vertex="1">
          <mxGeometry x="690" y="480" width="80" height="30" as="geometry" />
        </mxCell>
        <mxCell id="ayejM-d_Z_td1HJchVTd-14" value="" style="endArrow=classic;html=1;rounded=0;exitX=1;exitY=0.5;exitDx=0;exitDy=0;entryX=0;entryY=0.5;entryDx=0;entryDy=0;" parent="1" source="ayejM-d_Z_td1HJchVTd-3" target="ayejM-d_Z_td1HJchVTd-1" edge="1">
          <mxGeometry width="50" height="50" relative="1" as="geometry">
            <mxPoint x="460" y="430" as="sourcePoint" />
            <mxPoint x="560" y="390" as="targetPoint" />
            <Array as="points" />
          </mxGeometry>
        </mxCell>
        <mxCell id="ayejM-d_Z_td1HJchVTd-15" value="" style="endArrow=classic;html=1;rounded=0;exitX=1;exitY=0.5;exitDx=0;exitDy=0;" parent="1" edge="1">
          <mxGeometry width="50" height="50" relative="1" as="geometry">
            <mxPoint x="423.5" y="399.5" as="sourcePoint" />
            <mxPoint x="350" y="400" as="targetPoint" />
            <Array as="points" />
          </mxGeometry>
        </mxCell>
        <mxCell id="ayejM-d_Z_td1HJchVTd-16" value="" style="endArrow=classic;html=1;rounded=0;exitX=1;exitY=0.5;exitDx=0;exitDy=0;entryX=0;entryY=0.5;entryDx=0;entryDy=0;" parent="1" edge="1">
          <mxGeometry width="50" height="50" relative="1" as="geometry">
            <mxPoint x="423.5" y="399.5" as="sourcePoint" />
            <mxPoint x="337.5" y="399.5" as="targetPoint" />
            <Array as="points" />
          </mxGeometry>
        </mxCell>
        <mxCell id="ayejM-d_Z_td1HJchVTd-18" value="" style="endArrow=none;html=1;rounded=0;entryX=0;entryY=0.5;entryDx=0;entryDy=0;exitX=1;exitY=0.5;exitDx=0;exitDy=0;" parent="1" source="ayejM-d_Z_td1HJchVTd-1" target="ayejM-d_Z_td1HJchVTd-7" edge="1">
          <mxGeometry width="50" height="50" relative="1" as="geometry">
            <mxPoint x="690" y="410" as="sourcePoint" />
            <mxPoint x="740" y="360" as="targetPoint" />
          </mxGeometry>
        </mxCell>
        <mxCell id="ayejM-d_Z_td1HJchVTd-19" value="" style="endArrow=none;html=1;rounded=0;entryX=0.5;entryY=1;entryDx=0;entryDy=0;exitX=0.5;exitY=0;exitDx=0;exitDy=0;" parent="1" source="ayejM-d_Z_td1HJchVTd-5" target="ayejM-d_Z_td1HJchVTd-2" edge="1">
          <mxGeometry width="50" height="50" relative="1" as="geometry">
            <mxPoint x="250" y="470" as="sourcePoint" />
            <mxPoint x="290" y="470" as="targetPoint" />
          </mxGeometry>
        </mxCell>
        <mxCell id="ayejM-d_Z_td1HJchVTd-20" value="" style="endArrow=none;html=1;rounded=0;entryX=0.5;entryY=1;entryDx=0;entryDy=0;exitX=0.5;exitY=0;exitDx=0;exitDy=0;" parent="1" source="ayejM-d_Z_td1HJchVTd-4" target="ayejM-d_Z_td1HJchVTd-2" edge="1">
          <mxGeometry width="50" height="50" relative="1" as="geometry">
            <mxPoint x="170" y="460" as="sourcePoint" />
            <mxPoint x="210" y="460" as="targetPoint" />
          </mxGeometry>
        </mxCell>
        <mxCell id="ayejM-d_Z_td1HJchVTd-21" value="" style="endArrow=none;html=1;rounded=0;entryX=0.5;entryY=0;entryDx=0;entryDy=0;exitX=0.5;exitY=1;exitDx=0;exitDy=0;" parent="1" source="ayejM-d_Z_td1HJchVTd-2" target="ayejM-d_Z_td1HJchVTd-6" edge="1">
          <mxGeometry width="50" height="50" relative="1" as="geometry">
            <mxPoint x="300" y="460" as="sourcePoint" />
            <mxPoint x="340" y="460" as="targetPoint" />
          </mxGeometry>
        </mxCell>
        <mxCell id="ayejM-d_Z_td1HJchVTd-22" value="" style="endArrow=none;html=1;rounded=0;exitX=0.5;exitY=0;exitDx=0;exitDy=0;entryX=0.5;entryY=1;entryDx=0;entryDy=0;" parent="1" source="ayejM-d_Z_td1HJchVTd-8" target="ayejM-d_Z_td1HJchVTd-11" edge="1">
          <mxGeometry width="50" height="50" relative="1" as="geometry">
            <mxPoint x="690" y="530" as="sourcePoint" />
            <mxPoint x="630" y="520" as="targetPoint" />
          </mxGeometry>
        </mxCell>
        <mxCell id="ayejM-d_Z_td1HJchVTd-23" value="" style="endArrow=none;html=1;rounded=0;entryX=0.5;entryY=0;entryDx=0;entryDy=0;exitX=0.5;exitY=1;exitDx=0;exitDy=0;" parent="1" source="ayejM-d_Z_td1HJchVTd-11" target="ayejM-d_Z_td1HJchVTd-10" edge="1">
          <mxGeometry width="50" height="50" relative="1" as="geometry">
            <mxPoint x="620" y="540" as="sourcePoint" />
            <mxPoint x="660" y="540" as="targetPoint" />
          </mxGeometry>
        </mxCell>
        <mxCell id="ayejM-d_Z_td1HJchVTd-24" value="" style="endArrow=none;html=1;rounded=0;entryX=0.5;entryY=1;entryDx=0;entryDy=0;exitX=0.5;exitY=0;exitDx=0;exitDy=0;" parent="1" source="ayejM-d_Z_td1HJchVTd-9" target="ayejM-d_Z_td1HJchVTd-11" edge="1">
          <mxGeometry width="50" height="50" relative="1" as="geometry">
            <mxPoint x="550" y="540" as="sourcePoint" />
            <mxPoint x="590" y="540" as="targetPoint" />
          </mxGeometry>
        </mxCell>
        <mxCell id="ayejM-d_Z_td1HJchVTd-25" value="" style="endArrow=none;html=1;rounded=0;entryX=0.5;entryY=1;entryDx=0;entryDy=0;exitX=0.5;exitY=0;exitDx=0;exitDy=0;" parent="1" source="ayejM-d_Z_td1HJchVTd-13" target="ayejM-d_Z_td1HJchVTd-1" edge="1">
          <mxGeometry width="50" height="50" relative="1" as="geometry">
            <mxPoint x="680" y="460" as="sourcePoint" />
            <mxPoint x="720" y="460" as="targetPoint" />
          </mxGeometry>
        </mxCell>
        <mxCell id="ayejM-d_Z_td1HJchVTd-26" value="" style="endArrow=none;html=1;rounded=0;entryX=0.5;entryY=1;entryDx=0;entryDy=0;exitX=0.5;exitY=0;exitDx=0;exitDy=0;" parent="1" source="ayejM-d_Z_td1HJchVTd-11" target="ayejM-d_Z_td1HJchVTd-1" edge="1">
          <mxGeometry width="50" height="50" relative="1" as="geometry">
            <mxPoint x="610" y="460" as="sourcePoint" />
            <mxPoint x="650" y="460" as="targetPoint" />
          </mxGeometry>
        </mxCell>
        <mxCell id="ayejM-d_Z_td1HJchVTd-27" value="" style="endArrow=none;html=1;rounded=0;entryX=0.5;entryY=1;entryDx=0;entryDy=0;exitX=0.5;exitY=0;exitDx=0;exitDy=0;" parent="1" source="ayejM-d_Z_td1HJchVTd-12" target="ayejM-d_Z_td1HJchVTd-1" edge="1">
          <mxGeometry width="50" height="50" relative="1" as="geometry">
            <mxPoint x="540" y="460" as="sourcePoint" />
            <mxPoint x="580" y="460" as="targetPoint" />
          </mxGeometry>
        </mxCell>
        <mxCell id="j59XUjF9N-4OTw3vqqRw-1" value="T_A" style="rhombus;whiteSpace=wrap;html=1;strokeWidth=2;" vertex="1" parent="1">
          <mxGeometry x="250" y="240" width="60" height="60" as="geometry" />
        </mxCell>
        <mxCell id="j59XUjF9N-4OTw3vqqRw-2" value="" style="endArrow=classic;html=1;rounded=0;exitX=1;exitY=0.5;exitDx=0;exitDy=0;" edge="1" parent="1">
          <mxGeometry width="50" height="50" relative="1" as="geometry">
            <mxPoint x="280" y="300" as="sourcePoint" />
            <mxPoint x="280" y="360" as="targetPoint" />
            <Array as="points" />
          </mxGeometry>
        </mxCell>
        <mxCell id="j59XUjF9N-4OTw3vqqRw-3" value="" style="endArrow=classic;html=1;rounded=0;exitX=1;exitY=0.5;exitDx=0;exitDy=0;entryX=0.5;entryY=0;entryDx=0;entryDy=0;" edge="1" parent="1" target="ayejM-d_Z_td1HJchVTd-2">
          <mxGeometry width="50" height="50" relative="1" as="geometry">
            <mxPoint x="280" y="300" as="sourcePoint" />
            <mxPoint x="194" y="300" as="targetPoint" />
            <Array as="points" />
          </mxGeometry>
        </mxCell>
        <mxCell id="j59XUjF9N-4OTw3vqqRw-9" value="&lt;b&gt;Alkatrész&lt;/b&gt;" style="rounded=0;whiteSpace=wrap;html=1;strokeWidth=2;" vertex="1" parent="1">
          <mxGeometry x="220" y="130" width="120" height="60" as="geometry" />
        </mxCell>
        <mxCell id="j59XUjF9N-4OTw3vqqRw-10" value="&lt;b&gt;Név&lt;/b&gt;" style="ellipse;whiteSpace=wrap;html=1;" vertex="1" parent="1">
          <mxGeometry x="370" y="145" width="80" height="30" as="geometry" />
        </mxCell>
        <mxCell id="j59XUjF9N-4OTw3vqqRw-11" value="&lt;b&gt;&lt;u&gt;Akód&lt;/u&gt;&lt;/b&gt;" style="ellipse;whiteSpace=wrap;html=1;" vertex="1" parent="1">
          <mxGeometry x="110" y="145" width="80" height="30" as="geometry" />
        </mxCell>
        <mxCell id="j59XUjF9N-4OTw3vqqRw-12" value="" style="endArrow=classic;html=1;rounded=0;exitX=0.5;exitY=0;exitDx=0;exitDy=0;entryX=0.5;entryY=1;entryDx=0;entryDy=0;" edge="1" parent="1" source="j59XUjF9N-4OTw3vqqRw-1" target="j59XUjF9N-4OTw3vqqRw-9">
          <mxGeometry width="50" height="50" relative="1" as="geometry">
            <mxPoint x="350" y="210" as="sourcePoint" />
            <mxPoint x="350" y="280" as="targetPoint" />
            <Array as="points" />
          </mxGeometry>
        </mxCell>
        <mxCell id="j59XUjF9N-4OTw3vqqRw-13" value="" style="endArrow=classic;html=1;rounded=0;" edge="1" parent="1">
          <mxGeometry width="50" height="50" relative="1" as="geometry">
            <mxPoint x="280" y="230" as="sourcePoint" />
            <mxPoint x="280" y="200" as="targetPoint" />
            <Array as="points" />
          </mxGeometry>
        </mxCell>
        <mxCell id="j59XUjF9N-4OTw3vqqRw-14" value="" style="endArrow=none;html=1;rounded=0;entryX=0;entryY=0.5;entryDx=0;entryDy=0;exitX=1;exitY=0.5;exitDx=0;exitDy=0;" edge="1" parent="1" source="j59XUjF9N-4OTw3vqqRw-11" target="j59XUjF9N-4OTw3vqqRw-9">
          <mxGeometry width="50" height="50" relative="1" as="geometry">
            <mxPoint x="190" y="159" as="sourcePoint" />
            <mxPoint x="220" y="159.47" as="targetPoint" />
          </mxGeometry>
        </mxCell>
        <mxCell id="j59XUjF9N-4OTw3vqqRw-15" value="" style="endArrow=none;html=1;rounded=0;entryX=1;entryY=0.5;entryDx=0;entryDy=0;exitX=0;exitY=0.5;exitDx=0;exitDy=0;" edge="1" parent="1" source="j59XUjF9N-4OTw3vqqRw-10" target="j59XUjF9N-4OTw3vqqRw-9">
          <mxGeometry width="50" height="50" relative="1" as="geometry">
            <mxPoint x="210" y="190" as="sourcePoint" />
            <mxPoint x="230" y="170" as="targetPoint" />
          </mxGeometry>
        </mxCell>
        <mxCell id="j59XUjF9N-4OTw3vqqRw-16" value="Rendelés" style="rounded=0;whiteSpace=wrap;html=1;strokeWidth=2;" vertex="1" parent="1">
          <mxGeometry x="-140" y="370" width="120" height="60" as="geometry" />
        </mxCell>
        <mxCell id="j59XUjF9N-4OTw3vqqRw-17" value="dátum" style="ellipse;whiteSpace=wrap;html=1;" vertex="1" parent="1">
          <mxGeometry x="-210" y="480" width="80" height="30" as="geometry" />
        </mxCell>
        <mxCell id="j59XUjF9N-4OTw3vqqRw-18" value="ár" style="ellipse;whiteSpace=wrap;html=1;dashed=1;dashPattern=8 8;" vertex="1" parent="1">
          <mxGeometry x="-120" y="480" width="80" height="30" as="geometry" />
        </mxCell>
        <mxCell id="j59XUjF9N-4OTw3vqqRw-19" value="darabszám" style="ellipse;whiteSpace=wrap;html=1;" vertex="1" parent="1">
          <mxGeometry x="-30" y="480" width="80" height="30" as="geometry" />
        </mxCell>
        <mxCell id="j59XUjF9N-4OTw3vqqRw-20" value="" style="endArrow=none;html=1;rounded=0;entryX=0.5;entryY=1;entryDx=0;entryDy=0;exitX=0.5;exitY=0;exitDx=0;exitDy=0;" edge="1" parent="1" source="j59XUjF9N-4OTw3vqqRw-18" target="j59XUjF9N-4OTw3vqqRw-16">
          <mxGeometry width="50" height="50" relative="1" as="geometry">
            <mxPoint x="123" y="555" as="sourcePoint" />
            <mxPoint x="163" y="555" as="targetPoint" />
          </mxGeometry>
        </mxCell>
        <mxCell id="j59XUjF9N-4OTw3vqqRw-21" value="" style="endArrow=none;html=1;rounded=0;entryX=0.5;entryY=1;entryDx=0;entryDy=0;exitX=0.5;exitY=0;exitDx=0;exitDy=0;" edge="1" parent="1" source="j59XUjF9N-4OTw3vqqRw-17" target="j59XUjF9N-4OTw3vqqRw-16">
          <mxGeometry width="50" height="50" relative="1" as="geometry">
            <mxPoint x="43" y="545" as="sourcePoint" />
            <mxPoint x="83" y="545" as="targetPoint" />
          </mxGeometry>
        </mxCell>
        <mxCell id="j59XUjF9N-4OTw3vqqRw-22" value="" style="endArrow=none;html=1;rounded=0;entryX=0.5;entryY=0;entryDx=0;entryDy=0;exitX=0.5;exitY=1;exitDx=0;exitDy=0;" edge="1" parent="1" source="j59XUjF9N-4OTw3vqqRw-16" target="j59XUjF9N-4OTw3vqqRw-19">
          <mxGeometry width="50" height="50" relative="1" as="geometry">
            <mxPoint x="173" y="545" as="sourcePoint" />
            <mxPoint x="213" y="545" as="targetPoint" />
          </mxGeometry>
        </mxCell>
        <mxCell id="j59XUjF9N-4OTw3vqqRw-24" value="R-T" style="rhombus;whiteSpace=wrap;html=1;strokeWidth=2;" vertex="1" parent="1">
          <mxGeometry x="70" y="370" width="60" height="60" as="geometry" />
        </mxCell>
        <mxCell id="j59XUjF9N-4OTw3vqqRw-25" value="" style="endArrow=classic;html=1;rounded=0;exitX=0;exitY=0.5;exitDx=0;exitDy=0;entryX=1;entryY=0.5;entryDx=0;entryDy=0;" edge="1" parent="1" source="j59XUjF9N-4OTw3vqqRw-24" target="j59XUjF9N-4OTw3vqqRw-16">
          <mxGeometry width="50" height="50" relative="1" as="geometry">
            <mxPoint x="9.5" y="340" as="sourcePoint" />
            <mxPoint x="9.5" y="410" as="targetPoint" />
            <Array as="points" />
          </mxGeometry>
        </mxCell>
        <mxCell id="j59XUjF9N-4OTw3vqqRw-26" value="" style="endArrow=classic;html=1;rounded=0;entryX=1;entryY=0.5;entryDx=0;entryDy=0;" edge="1" parent="1">
          <mxGeometry width="50" height="50" relative="1" as="geometry">
            <mxPoint x="50" y="399.5" as="sourcePoint" />
            <mxPoint x="-10" y="399.5" as="targetPoint" />
            <Array as="points" />
          </mxGeometry>
        </mxCell>
        <mxCell id="j59XUjF9N-4OTw3vqqRw-27" value="" style="endArrow=classic;html=1;rounded=0;entryX=0;entryY=0.5;entryDx=0;entryDy=0;exitX=1;exitY=0.5;exitDx=0;exitDy=0;" edge="1" parent="1" source="j59XUjF9N-4OTw3vqqRw-24" target="ayejM-d_Z_td1HJchVTd-2">
          <mxGeometry width="50" height="50" relative="1" as="geometry">
            <mxPoint x="200" y="404.5" as="sourcePoint" />
            <mxPoint x="140" y="404.5" as="targetPoint" />
            <Array as="points" />
          </mxGeometry>
        </mxCell>
        <mxCell id="j59XUjF9N-4OTw3vqqRw-28" value="" style="endArrow=classic;html=1;rounded=0;entryX=0;entryY=0.5;entryDx=0;entryDy=0;" edge="1" parent="1">
          <mxGeometry width="50" height="50" relative="1" as="geometry">
            <mxPoint x="150" y="399.5" as="sourcePoint" />
            <mxPoint x="210" y="399.5" as="targetPoint" />
            <Array as="points" />
          </mxGeometry>
        </mxCell>
        <mxCell id="j59XUjF9N-4OTw3vqqRw-29" value="Rkód" style="ellipse;whiteSpace=wrap;html=1;" vertex="1" parent="1">
          <mxGeometry x="-250" y="385" width="80" height="30" as="geometry" />
        </mxCell>
        <mxCell id="j59XUjF9N-4OTw3vqqRw-31" value="" style="endArrow=none;html=1;rounded=0;entryX=0;entryY=0.5;entryDx=0;entryDy=0;exitX=1;exitY=0.5;exitDx=0;exitDy=0;" edge="1" parent="1" source="j59XUjF9N-4OTw3vqqRw-29" target="j59XUjF9N-4OTw3vqqRw-16">
          <mxGeometry width="50" height="50" relative="1" as="geometry">
            <mxPoint x="-280" y="480" as="sourcePoint" />
            <mxPoint x="-230" y="430" as="targetPoint" />
          </mxGeometry>
        </mxCell>
        <mxCell id="j59XUjF9N-4OTw3vqqRw-32" value="" style="ellipse;whiteSpace=wrap;html=1;strokeWidth=2;" vertex="1" parent="1">
          <mxGeometry x="130" y="310" width="90" height="40" as="geometry" />
        </mxCell>
        <mxCell id="j59XUjF9N-4OTw3vqqRw-33" value="&lt;b&gt;egység_db&lt;/b&gt;" style="ellipse;whiteSpace=wrap;html=1;strokeWidth=2;" vertex="1" parent="1">
          <mxGeometry x="135" y="315" width="80" height="30" as="geometry" />
        </mxCell>
        <mxCell id="j59XUjF9N-4OTw3vqqRw-35" value="" style="endArrow=none;html=1;rounded=0;exitX=0;exitY=0;exitDx=0;exitDy=0;entryX=0.5;entryY=1;entryDx=0;entryDy=0;" edge="1" parent="1" source="ayejM-d_Z_td1HJchVTd-2" target="j59XUjF9N-4OTw3vqqRw-32">
          <mxGeometry width="50" height="50" relative="1" as="geometry">
            <mxPoint x="100" y="330" as="sourcePoint" />
            <mxPoint x="150" y="280" as="targetPoint" />
          </mxGeometry>
        </mxCell>
        <mxCell id="j59XUjF9N-4OTw3vqqRw-36" value="R.V" style="rhombus;whiteSpace=wrap;html=1;strokeWidth=2;" vertex="1" parent="1">
          <mxGeometry x="-110" y="240" width="60" height="60" as="geometry" />
        </mxCell>
        <mxCell id="j59XUjF9N-4OTw3vqqRw-37" value="" style="endArrow=classic;html=1;rounded=0;" edge="1" parent="1">
          <mxGeometry width="50" height="50" relative="1" as="geometry">
            <mxPoint x="-80" y="300" as="sourcePoint" />
            <mxPoint x="-80" y="350" as="targetPoint" />
            <Array as="points" />
          </mxGeometry>
        </mxCell>
        <mxCell id="j59XUjF9N-4OTw3vqqRw-38" value="" style="endArrow=classic;html=1;rounded=0;entryX=0.5;entryY=0;entryDx=0;entryDy=0;exitX=0.5;exitY=1;exitDx=0;exitDy=0;" edge="1" parent="1">
          <mxGeometry width="50" height="50" relative="1" as="geometry">
            <mxPoint x="-80.5" y="300" as="sourcePoint" />
            <mxPoint x="-80.5" y="370" as="targetPoint" />
            <Array as="points" />
          </mxGeometry>
        </mxCell>
        <mxCell id="j59XUjF9N-4OTw3vqqRw-39" value="&lt;b&gt;Vevo&lt;/b&gt;" style="rounded=0;whiteSpace=wrap;html=1;strokeWidth=2;" vertex="1" parent="1">
          <mxGeometry x="-140" y="130" width="120" height="60" as="geometry" />
        </mxCell>
        <mxCell id="j59XUjF9N-4OTw3vqqRw-44" value="utca" style="ellipse;whiteSpace=wrap;html=1;strokeWidth=2;" vertex="1" parent="1">
          <mxGeometry x="-32.5" y="20" width="70" height="30" as="geometry" />
        </mxCell>
        <mxCell id="j59XUjF9N-4OTw3vqqRw-45" value="&lt;u&gt;vkod&lt;/u&gt;" style="ellipse;whiteSpace=wrap;html=1;" vertex="1" parent="1">
          <mxGeometry x="-275" y="145" width="80" height="30" as="geometry" />
        </mxCell>
        <mxCell id="j59XUjF9N-4OTw3vqqRw-46" value="irsz" style="ellipse;whiteSpace=wrap;html=1;strokeWidth=2;" vertex="1" parent="1">
          <mxGeometry x="-115" y="20" width="70" height="30" as="geometry" />
        </mxCell>
        <mxCell id="j59XUjF9N-4OTw3vqqRw-47" value="varos" style="ellipse;whiteSpace=wrap;html=1;strokeWidth=2;" vertex="1" parent="1">
          <mxGeometry x="-195" y="20" width="70" height="30" as="geometry" />
        </mxCell>
        <mxCell id="j59XUjF9N-4OTw3vqqRw-48" value="Lakcím" style="ellipse;whiteSpace=wrap;html=1;" vertex="1" parent="1">
          <mxGeometry x="-127.5" y="70" width="95" height="30" as="geometry" />
        </mxCell>
        <mxCell id="j59XUjF9N-4OTw3vqqRw-49" value="nev" style="ellipse;whiteSpace=wrap;html=1;strokeWidth=2;" vertex="1" parent="1">
          <mxGeometry x="-270" y="20" width="70" height="30" as="geometry" />
        </mxCell>
        <mxCell id="j59XUjF9N-4OTw3vqqRw-50" value="" style="endArrow=classic;html=1;rounded=0;exitX=0.5;exitY=0;exitDx=0;exitDy=0;entryX=0.5;entryY=1;entryDx=0;entryDy=0;" edge="1" parent="1" source="j59XUjF9N-4OTw3vqqRw-36" target="j59XUjF9N-4OTw3vqqRw-39">
          <mxGeometry width="50" height="50" relative="1" as="geometry">
            <mxPoint x="9.5" y="210" as="sourcePoint" />
            <mxPoint x="9.5" y="280" as="targetPoint" />
            <Array as="points" />
          </mxGeometry>
        </mxCell>
        <mxCell id="j59XUjF9N-4OTw3vqqRw-51" value="" style="endArrow=none;html=1;rounded=0;entryX=0;entryY=0.5;entryDx=0;entryDy=0;exitX=1;exitY=0.5;exitDx=0;exitDy=0;" edge="1" parent="1" source="j59XUjF9N-4OTw3vqqRw-45" target="j59XUjF9N-4OTw3vqqRw-39">
          <mxGeometry width="50" height="50" relative="1" as="geometry">
            <mxPoint x="-220" y="225" as="sourcePoint" />
            <mxPoint x="-170" y="175" as="targetPoint" />
          </mxGeometry>
        </mxCell>
        <mxCell id="j59XUjF9N-4OTw3vqqRw-52" value="" style="endArrow=none;html=1;rounded=0;entryX=0.5;entryY=0;entryDx=0;entryDy=0;exitX=0.5;exitY=1;exitDx=0;exitDy=0;" edge="1" parent="1" source="j59XUjF9N-4OTw3vqqRw-49" target="j59XUjF9N-4OTw3vqqRw-39">
          <mxGeometry width="50" height="50" relative="1" as="geometry">
            <mxPoint x="-210" y="60" as="sourcePoint" />
            <mxPoint x="-155" y="60" as="targetPoint" />
          </mxGeometry>
        </mxCell>
        <mxCell id="j59XUjF9N-4OTw3vqqRw-53" value="" style="endArrow=none;html=1;rounded=0;entryX=0.5;entryY=0;entryDx=0;entryDy=0;exitX=0.5;exitY=1;exitDx=0;exitDy=0;" edge="1" parent="1" source="j59XUjF9N-4OTw3vqqRw-44" target="j59XUjF9N-4OTw3vqqRw-48">
          <mxGeometry width="50" height="50" relative="1" as="geometry">
            <mxPoint x="-175" y="180" as="sourcePoint" />
            <mxPoint x="-120" y="180" as="targetPoint" />
            <Array as="points" />
          </mxGeometry>
        </mxCell>
        <mxCell id="j59XUjF9N-4OTw3vqqRw-54" value="" style="endArrow=none;html=1;rounded=0;entryX=0.5;entryY=1;entryDx=0;entryDy=0;exitX=0.5;exitY=0;exitDx=0;exitDy=0;" edge="1" parent="1" source="j59XUjF9N-4OTw3vqqRw-48" target="j59XUjF9N-4OTw3vqqRw-47">
          <mxGeometry width="50" height="50" relative="1" as="geometry">
            <mxPoint x="-80" y="70" as="sourcePoint" />
            <mxPoint x="-193" y="90" as="targetPoint" />
            <Array as="points" />
          </mxGeometry>
        </mxCell>
        <mxCell id="j59XUjF9N-4OTw3vqqRw-55" value="" style="endArrow=none;html=1;rounded=0;entryX=0.5;entryY=1;entryDx=0;entryDy=0;exitX=0.5;exitY=0;exitDx=0;exitDy=0;" edge="1" parent="1" source="j59XUjF9N-4OTw3vqqRw-48" target="j59XUjF9N-4OTw3vqqRw-46">
          <mxGeometry width="50" height="50" relative="1" as="geometry">
            <mxPoint x="-120" y="110" as="sourcePoint" />
            <mxPoint x="-150" y="60" as="targetPoint" />
            <Array as="points" />
          </mxGeometry>
        </mxCell>
        <mxCell id="j59XUjF9N-4OTw3vqqRw-56" value="" style="endArrow=none;html=1;rounded=0;entryX=0.5;entryY=1;entryDx=0;entryDy=0;exitX=0.5;exitY=0;exitDx=0;exitDy=0;" edge="1" parent="1" source="j59XUjF9N-4OTw3vqqRw-39" target="j59XUjF9N-4OTw3vqqRw-48">
          <mxGeometry width="50" height="50" relative="1" as="geometry">
            <mxPoint x="-70" y="80" as="sourcePoint" />
            <mxPoint x="-70" y="60" as="targetPoint" />
            <Array as="points" />
          </mxGeometry>
        </mxCell>
      </root>
    </mxGraphModel>
  </diagram>
</mxfile>
